<svg width="27" height="40" viewBox="0 0 27 40" fill="none" xmlns="http://www.w3.org/2000/svg">
<path d="M13.8053 20.2617C13.8053 11.5748 26.8398 11.5748 26.8398 20.2617C26.8398 28.9485 13.8053 28.9485 13.8053 20.2617ZM0.770754 33.2962C0.770754 29.6939 3.68511 26.7795 7.28742 26.7795H13.8041V33.2962C13.8041 41.9831 0.769531 41.9831 0.769531 33.2962H0.770754ZM13.8053 0.71045V13.745H20.322C29.0088 13.745 29.0088 0.71045 20.322 0.71045H13.8053ZM0.770754 7.22711C0.770754 10.8294 3.68511 13.7438 7.28742 13.7438H13.8041V0.709229H7.28742C3.68511 0.709229 0.770754 3.62358 0.770754 7.22589V7.22711ZM0.770754 20.2617C0.770754 23.864 3.68511 26.7783 7.28742 26.7783H13.8041V13.7438H7.28742C3.68511 13.7438 0.770754 16.6581 0.770754 20.2604V20.2617Z" fill="black"/>
</svg>
