<svg width="55" height="39" viewBox="0 0 55 39" fill="none" xmlns="http://www.w3.org/2000/svg">
<path d="M53.4005 6.82254C52.7556 4.53327 50.9704 2.73783 48.6709 2.10315C44.4369 0.971246 27.4159 0.971246 27.4159 0.971246C27.4159 0.971246 10.4271 0.944093 6.14892 2.10315C3.86135 2.73953 2.06761 4.53327 1.42954 6.82254C0.62685 11.1618 0.228053 15.5537 0.24672 19.9659C0.238235 24.3493 0.635335 28.7343 1.42954 33.0464C2.06761 35.3357 3.86135 37.1311 6.14892 37.776C10.383 38.9079 27.4159 38.9079 27.4159 38.9079C27.4159 38.9079 44.3944 38.9079 48.6709 37.776C50.9704 37.1311 52.7556 35.3374 53.4005 33.0464C54.1794 28.7343 54.5595 24.3493 54.5324 19.9659C54.5595 15.5537 54.1879 11.1618 53.4005 6.82254ZM21.9786 28.0895V11.8067L36.147 19.9659L21.9786 28.0895Z" fill="black"/>
</svg>
