<svg width="42" height="42" viewBox="0 0 42 42" fill="none" xmlns="http://www.w3.org/2000/svg">
<path d="M34.5705 0.739746H7.80888C3.74809 0.739746 0.470703 4.01713 0.470703 8.07792V33.7998C0.470703 37.8605 3.74809 41.1379 7.80888 41.1379H34.5705C38.6313 41.1379 41.9087 37.8605 41.9087 33.7998V8.07792C41.9087 4.01713 38.6313 0.739746 34.5705 0.739746ZM40.1619 33.1264C40.1826 36.5915 37.3766 39.4105 33.9166 39.4105H8.4641C5.01061 39.4105 2.1981 36.598 2.1981 33.1445V8.73185C2.1981 5.27836 5.01061 2.46584 8.4641 2.46584H33.8959C37.3558 2.46584 40.1619 5.27188 40.1619 8.73185V33.1264ZM16.8537 19.6439L21.6902 28.9309C21.7782 29.0721 21.7251 29.2068 21.5879 29.2068H18.5798C18.3921 29.2068 18.304 29.1601 18.2224 28.984C17.1179 26.705 15.99 24.426 14.8363 21.9773H14.8039C13.7641 24.2887 12.6246 26.7257 11.5188 29.0048C11.4398 29.1394 11.3517 29.1925 11.2093 29.1925H8.3618C8.18699 29.1925 8.17404 29.0514 8.2621 28.9504L12.9898 19.9392L8.41748 10.8218C8.30871 10.6807 8.41748 10.5784 8.51719 10.5784H11.4851C11.6599 10.5784 11.7285 10.6133 11.7959 10.7661C12.8875 13.0464 13.9868 15.3928 15.0266 17.6925H15.059C16.0639 15.4135 17.171 13.0464 18.2354 10.7868C18.3234 10.6457 18.3765 10.5577 18.5462 10.5577H21.3237C21.4649 10.5577 21.5192 10.6664 21.4325 10.8011L16.8537 19.6439ZM22.5383 22.4565C22.5383 18.4371 25.2097 15.2931 29.4583 15.2931C29.8221 15.2931 30.0112 15.2931 30.3556 15.3281V10.7558C30.3556 10.647 30.4424 10.5797 30.5304 10.5797H33.2549C33.396 10.5797 33.431 10.6328 33.431 10.7143V26.5703C33.431 27.0352 33.431 27.6218 33.5191 28.255C33.5191 28.3638 33.4841 28.3961 33.3779 28.4518C31.9276 29.1394 30.41 29.4502 28.9597 29.4502C25.2097 29.4696 22.5383 27.1569 22.5383 22.4565ZM30.3569 18.0383C30.12 17.9386 29.7703 17.8635 29.3573 17.8635C27.1805 17.8635 25.6629 19.5416 25.6629 22.3218C25.6629 25.4982 27.2129 26.7723 29.1695 26.7723C29.58 26.7723 30.0332 26.7257 30.3569 26.5846V18.0383Z" fill="black"/>
</svg>
